# xmcd CD database file
#
# Track frame offsets:
#	150
#	29300
#	58782
#	89560
#	130035
#	159413
#	189879
#	229548
#	263865
#
# Disc length: 4105 seconds
#
# Revision: 0
# Processed by: cddbd v1.5.1PL0 Copyright (c) Steve Scherf et al.
# Submitted via: CDex 1.51
#
DISCID=6c100709
DTITLE=Kelly Joe Phelps - Tap the Red Cane Whirlwind
DYEAR=2005
DGENRE=Blues
TTITLE0=Hard Time Killin' Floor Blues
TTITLE1=Not So Far to Go
TTITLE2=Jericho
TTITLE3=Fleashine
TTITLE4=Cardboard Box of Batteries
TTITLE5=Gold Tooth
TTITLE6=Tommy
TTITLE7=I Am the Light of the World
TTITLE8=Waiting for Marty
EXTD=YEAR: 2005
EXTT0=
EXTT1=
EXTT2=
EXTT3=
EXTT4=
EXTT5=
EXTT6=
EXTT7=
EXTT8=
PLAYORDER=
